<?xml version="1.0" standalone="no"?>
<!DOCTYPE svg PUBLIC "-//W3C//DTD SVG 20010904//EN"
 "http://www.w3.org/TR/2001/REC-SVG-20010904/DTD/svg10.dtd">
<svg version="1.0" xmlns="http://www.w3.org/2000/svg"
 width="1920.000000pt" height="638.000000pt" viewBox="0 0 1920.000000 638.000000"
 preserveAspectRatio="xMidYMid meet">

<g transform="translate(0.000000,638.000000) scale(0.100000,-0.100000)"
fill="#000000" stroke="none">
<path d="M0 6360 c0 -20 7 -20 2150 -20 1183 0 2150 4 2150 8 0 32 -10 32
-2162 32 -2131 0 -2138 0 -2138 -20z"/>
<path d="M4590 6285 l95 -95 -2343 0 -2342 0 0 -2198 0 -2197 453 -453 452
-452 1025 0 1025 0 155 -155 155 -155 1090 0 1090 0 290 -290 290 -290 3575 0
3575 0 290 290 290 290 1090 0 1090 0 155 155 155 155 1025 0 1025 0 453 453
452 452 0 2198 0 2197 -2342 0 -2343 0 95 95 95 95 -640 0 -640 0 -540 -540
-540 -540 -2745 0 -2745 0 -540 540 -540 540 -640 0 -640 0 95 -95z"/>
<path d="M6456 5919 l461 -461 2684 1 2684 1 460 460 460 460 -3605 0 -3605 0
461 -461z"/>
<path d="M14912 6368 c-7 -7 -12 -16 -12 -20 0 -4 968 -8 2150 -8 2143 0 2150
0 2150 20 0 20 -7 20 -2138 20 -1650 0 -2141 -3 -2150 -12z"/>
<path d="M0 822 l0 -822 423 0 422 0 0 29 c0 16 -3 27 -7 25 -3 -2 -5 13 -5
35 l2 38 155 6 c85 4 439 7 785 7 l631 0 69 -70 69 -70 1660 0 1659 0 -229
234 -229 234 -1095 1 -1095 1 -155 155 -155 155 -1020 0 -1020 0 -432 432
-433 433 0 -823z"/>
<path d="M18765 1210 l-430 -430 -1020 0 -1020 0 -155 -155 -155 -155 -1095
-1 -1095 -1 -229 -234 -229 -234 1659 0 1660 0 69 70 69 70 631 0 c346 0 700
-3 785 -7 l155 -6 2 -38 c0 -22 -2 -37 -5 -35 -4 2 -7 -9 -7 -25 l0 -29 423 0
422 0 0 820 c0 451 -1 820 -3 820 -1 0 -196 -193 -432 -430z"/>
</g>
</svg>
