<svg id="svg" version="1.1" xmlns="http://www.w3.org/2000/svg" xmlns:xlink="http://www.w3.org/1999/xlink" width="400" height="400" viewBox="0, 0, 400,400"><g id="svgg"><path id="path0" d="M48.000 15.399 L 48.000 18.000 43.000 18.000 L 38.000 18.000 38.000 20.381 L 38.000 22.762 35.500 22.881 L 33.000 23.000 32.881 25.500 L 32.762 28.000 30.381 28.000 L 28.000 28.000 28.000 30.381 L 28.000 32.762 25.500 32.881 L 23.000 33.000 22.881 35.500 L 22.762 38.000 20.381 38.000 L 18.000 38.000 18.000 43.000 L 18.000 48.000 15.399 48.000 L 12.799 48.000 12.899 200.100 L 13.000 352.200 15.500 352.319 L 18.000 352.438 18.000 357.419 L 18.000 362.400 20.381 362.400 L 22.762 362.400 22.881 364.900 L 23.000 367.400 25.500 367.519 L 28.000 367.638 28.000 370.019 L 28.000 372.400 30.381 372.400 L 32.762 372.400 32.881 374.900 L 33.000 377.400 35.500 377.519 L 38.000 377.638 38.000 380.019 L 38.000 382.400 43.000 382.400 L 48.000 382.400 48.000 385.001 L 48.000 387.601 200.100 387.501 L 352.200 387.400 352.319 384.912 L 352.438 382.424 357.319 382.312 L 362.200 382.200 362.319 379.919 L 362.439 377.637 364.919 377.519 L 367.400 377.400 367.519 374.919 L 367.637 372.439 369.919 372.319 L 372.200 372.200 372.319 369.919 L 372.439 367.637 374.919 367.519 L 377.400 367.400 377.519 364.919 L 377.637 362.439 379.919 362.319 L 382.200 362.200 382.312 357.319 L 382.424 352.438 384.912 352.319 L 387.400 352.200 387.501 200.100 L 387.601 48.000 385.001 48.000 L 382.400 48.000 382.400 43.000 L 382.400 38.000 380.019 38.000 L 377.638 38.000 377.519 35.500 L 377.400 33.000 374.900 32.881 L 372.400 32.762 372.400 30.381 L 372.400 28.000 370.019 28.000 L 367.638 28.000 367.519 25.500 L 367.400 23.000 364.900 22.881 L 362.400 22.762 362.400 20.381 L 362.400 18.000 357.419 18.000 L 352.438 18.000 352.319 15.500 L 352.200 13.000 200.100 12.899 L 48.000 12.799 48.000 15.399 M138.000 73.572 C 144.545 74.067,145.557 74.628,146.612 78.339 C 146.849 79.173,147.042 79.249,148.339 79.018 C 154.450 77.928,155.908 78.523,156.802 82.470 C 157.469 85.414,157.859 86.075,158.407 85.188 C 158.607 84.865,158.912 84.598,159.085 84.595 C 159.258 84.593,159.982 84.347,160.692 84.050 C 162.899 83.127,165.699 84.526,166.302 86.855 C 166.586 87.949,167.265 88.514,169.600 89.599 C 169.930 89.753,170.746 90.851,171.414 92.039 C 172.082 93.228,172.802 94.224,173.014 94.254 C 174.295 94.432,175.162 94.999,175.588 95.934 C 175.855 96.520,176.036 97.000,175.990 97.000 C 175.944 97.000,176.169 97.630,176.491 98.400 C 176.812 99.170,177.059 99.963,177.038 100.162 C 177.017 100.361,177.351 100.575,177.780 100.638 C 178.522 100.747,180.117 102.416,179.792 102.742 C 179.707 102.826,179.900 103.157,180.219 103.476 C 180.539 103.796,180.800 104.644,180.800 105.362 C 180.800 106.080,180.935 106.802,181.100 106.967 C 181.265 107.132,181.416 107.387,181.435 107.533 C 181.563 108.524,182.223 109.200,183.062 109.200 C 186.654 109.200,188.459 120.115,185.150 121.826 C 184.522 122.150,183.916 122.413,183.804 122.408 C 183.692 122.404,183.412 122.400,183.182 122.400 C 182.920 122.400,182.809 123.477,182.882 125.300 C 182.948 126.927,183.169 128.143,183.384 128.070 C 183.596 127.999,183.898 128.269,184.056 128.670 C 184.331 129.369,184.345 129.368,184.372 128.655 C 184.397 128.000,184.619 127.942,186.200 128.179 L 188.000 128.449 188.000 127.087 C 188.000 125.268,189.433 123.604,191.013 123.587 C 192.598 123.570,193.600 122.745,193.600 121.456 C 193.600 120.175,194.785 118.907,196.290 118.577 C 196.900 118.443,197.602 118.273,197.849 118.199 C 198.097 118.124,198.420 117.419,198.568 116.630 C 198.894 114.890,200.184 113.600,201.595 113.600 C 202.912 113.600,203.596 112.928,203.613 111.620 C 203.631 110.132,204.511 109.201,206.434 108.633 C 207.955 108.184,208.186 107.948,208.652 106.371 C 209.238 104.384,210.072 103.600,211.596 103.600 C 212.912 103.600,213.596 102.928,213.613 101.620 C 213.631 100.132,214.511 99.201,216.434 98.633 C 217.941 98.188,218.188 97.941,218.633 96.434 C 219.201 94.511,220.132 93.631,221.620 93.613 C 222.896 93.597,223.600 92.917,223.600 91.702 C 223.600 90.419,225.180 88.944,227.110 88.424 C 228.497 88.051,228.747 87.808,228.970 86.621 C 229.297 84.876,231.225 83.600,233.534 83.600 C 235.102 83.600,238.000 81.547,238.000 80.436 C 238.000 78.040,245.140 77.806,246.793 80.147 C 247.374 80.972,247.442 81.138,247.550 82.000 C 247.578 82.220,247.982 82.400,248.449 82.400 C 249.114 82.400,249.201 82.284,248.852 81.863 C 248.607 81.568,248.504 81.229,248.624 81.110 C 248.743 80.991,248.898 80.007,248.969 78.924 C 249.320 73.524,249.539 73.455,266.400 73.426 L 279.800 73.403 281.793 74.401 C 282.912 74.962,284.141 75.964,284.593 76.685 C 285.460 78.065,285.964 78.229,290.400 78.574 C 294.767 78.913,296.369 79.782,296.391 81.820 C 296.404 82.967,297.160 83.600,298.518 83.600 C 299.987 83.600,302.000 84.771,302.000 85.625 C 302.000 85.984,302.372 86.706,302.826 87.230 C 303.298 87.775,303.470 88.243,303.226 88.325 C 302.992 88.403,302.800 88.642,302.800 88.857 C 302.800 89.072,303.025 89.112,303.300 88.947 C 303.640 88.743,303.624 88.863,303.251 89.323 C 302.949 89.695,302.827 90.000,302.980 90.000 C 303.132 90.000,302.981 90.276,302.643 90.614 C 302.028 91.229,302.419 92.994,303.312 93.636 C 303.492 93.766,303.668 94.248,303.703 94.708 C 303.738 95.168,303.909 95.456,304.083 95.349 C 304.257 95.241,304.400 95.371,304.400 95.638 C 304.400 95.933,304.737 95.825,305.258 95.362 C 305.845 94.841,306.170 94.751,306.284 95.078 C 306.376 95.340,306.665 95.481,306.926 95.389 C 307.567 95.165,309.032 96.441,309.375 97.522 C 309.529 98.005,309.822 98.400,310.027 98.400 C 310.232 98.400,310.400 98.691,310.400 99.047 C 310.400 99.497,310.644 99.630,311.201 99.484 C 311.696 99.354,312.150 99.528,312.389 99.937 C 312.602 100.302,312.781 100.453,312.788 100.273 C 312.809 99.707,315.200 101.626,315.200 102.208 C 315.200 102.774,317.491 103.594,319.084 103.598 C 322.770 103.607,322.829 111.403,319.149 112.211 C 316.961 112.692,318.152 113.393,321.535 113.615 C 326.099 113.915,326.514 114.370,326.710 119.292 C 326.926 124.691,326.559 125.971,324.505 126.980 L 322.837 127.800 322.819 202.900 C 322.806 252.712,322.935 278.000,323.200 278.000 C 323.422 278.000,323.600 279.058,323.600 280.374 C 323.600 282.715,323.619 282.755,324.972 283.245 C 326.327 283.734,326.349 283.779,326.624 286.717 C 327.397 294.970,325.382 297.816,319.588 296.658 C 318.935 296.527,318.400 296.491,318.400 296.577 C 318.400 296.664,318.291 297.019,318.157 297.367 C 317.971 297.853,318.180 298.001,319.057 298.003 C 320.411 298.007,322.000 300.363,322.000 302.366 C 322.000 303.773,320.846 306.399,320.226 306.402 C 318.284 306.412,316.796 307.321,315.951 309.013 C 315.460 309.996,314.813 310.800,314.513 310.800 C 313.407 310.800,310.956 312.361,310.387 313.427 C 309.624 314.856,306.871 316.152,306.035 315.476 C 305.575 315.104,305.512 315.109,305.744 315.495 C 305.946 315.832,305.842 315.914,305.421 315.753 C 305.067 315.617,304.800 315.726,304.800 316.006 C 304.800 316.392,304.671 316.391,304.200 316.000 C 303.766 315.640,303.600 315.630,303.600 315.965 C 303.600 316.220,303.291 316.900,302.913 317.476 C 302.461 318.166,302.180 319.558,302.090 321.553 C 302.014 323.219,301.815 324.676,301.647 324.791 C 301.479 324.906,301.225 325.315,301.083 325.700 C 300.941 326.085,300.442 326.400,299.973 326.400 C 298.403 326.400,296.400 327.620,296.400 328.576 C 296.400 332.626,284.746 333.339,283.194 329.384 L 282.651 328.000 265.125 328.000 C 248.706 328.000,247.599 328.044,247.587 328.700 C 247.543 331.152,242.346 332.943,239.989 331.318 C 238.210 330.092,238.001 329.547,238.058 326.290 C 238.088 324.579,237.998 323.064,237.857 322.923 C 237.715 322.782,237.600 323.247,237.600 323.957 C 237.600 324.715,237.435 325.145,237.200 325.000 C 236.980 324.864,236.800 325.014,236.800 325.334 C 236.800 327.939,229.982 326.283,229.000 323.439 C 228.684 322.523,228.207 322.166,226.718 321.733 C 224.737 321.157,223.600 320.000,223.600 318.560 C 223.600 317.499,223.004 316.980,221.017 316.315 C 219.688 315.869,219.374 315.517,218.687 313.700 C 218.250 312.545,217.655 311.600,217.365 311.600 C 213.230 311.600,212.317 304.723,216.247 303.181 C 218.290 302.380,217.906 302.125,214.523 302.035 C 209.328 301.898,208.264 300.687,208.341 294.997 C 208.399 290.758,209.206 288.775,211.100 288.217 L 212.400 287.835 212.400 284.788 L 212.400 281.742 210.300 281.882 C 206.944 282.105,206.400 282.308,206.400 283.333 C 206.400 284.469,204.544 286.286,203.200 286.466 C 202.464 286.565,201.950 287.103,201.253 288.509 C 200.477 290.074,199.954 290.569,198.353 291.258 C 197.279 291.720,196.400 292.332,196.400 292.617 C 196.400 294.175,194.118 296.400,192.520 296.400 C 192.234 296.400,192.000 296.754,192.000 297.186 C 192.000 298.962,190.705 300.742,188.827 301.550 C 187.182 302.258,186.927 302.544,186.492 304.173 C 186.033 305.888,185.887 306.033,184.152 306.497 C 183.134 306.770,182.216 307.264,182.113 307.596 C 181.216 310.478,179.704 311.995,177.728 311.999 C 177.103 312.000,176.616 312.481,176.007 313.700 C 175.234 315.249,173.770 316.400,172.574 316.400 C 172.318 316.400,171.672 317.248,171.138 318.284 C 170.411 319.698,169.698 320.411,168.284 321.138 C 167.248 321.672,166.400 322.339,166.400 322.622 C 166.400 324.992,163.758 326.607,160.467 326.249 C 157.679 325.946,157.447 326.090,156.610 328.653 C 155.749 331.288,154.001 332.238,150.721 331.855 C 146.610 331.375,145.397 331.094,145.080 330.550 C 144.904 330.247,144.499 330.000,144.180 330.000 C 143.861 330.000,143.600 329.807,143.600 329.571 C 143.600 328.068,142.900 328.000,127.456 328.000 C 113.302 328.000,112.441 328.041,112.223 328.728 C 111.243 331.815,99.200 333.186,99.200 330.210 C 99.200 328.372,97.493 326.129,95.885 325.854 C 95.712 325.824,95.422 325.560,95.241 325.266 C 95.059 324.972,94.796 324.747,94.655 324.766 C 93.886 324.869,93.666 324.718,93.391 323.900 C 93.224 323.405,93.043 322.100,92.988 321.000 C 92.835 317.979,92.827 317.936,92.435 318.178 C 92.235 318.302,92.120 318.853,92.180 319.402 C 92.241 319.951,92.180 320.414,92.045 320.431 C 91.910 320.447,91.440 320.546,91.000 320.649 C 87.487 321.475,85.797 320.722,84.264 317.647 C 83.720 316.558,82.882 315.612,82.119 315.229 C 80.163 314.247,79.255 312.308,80.109 310.942 C 80.268 310.688,80.118 310.377,79.772 310.245 C 79.430 310.113,79.235 309.867,79.339 309.698 C 79.444 309.529,79.275 309.044,78.965 308.619 C 78.561 308.068,78.398 308.012,78.394 308.424 C 78.390 308.769,78.270 308.838,78.094 308.596 C 77.932 308.374,77.063 307.715,76.163 307.132 C 74.758 306.222,74.429 305.726,73.842 303.635 C 73.318 301.770,72.906 301.066,72.079 300.630 C 67.919 298.437,66.629 284.762,70.433 283.186 C 72.180 282.463,72.146 283.910,72.272 204.200 L 72.393 127.800 70.846 127.091 C 68.053 125.810,67.232 115.133,69.692 112.100 C 69.915 111.825,69.992 111.600,69.863 111.600 C 69.734 111.600,70.027 111.183,70.514 110.674 C 71.001 110.165,71.495 109.791,71.611 109.843 C 72.206 110.109,73.670 108.397,73.856 107.218 C 74.308 104.351,76.756 100.544,77.873 100.972 C 78.185 101.093,78.339 101.025,78.214 100.823 C 78.089 100.621,78.173 100.340,78.400 100.200 C 78.627 100.060,78.709 99.777,78.583 99.572 C 78.456 99.368,78.505 99.200,78.691 99.200 C 78.877 99.200,79.074 98.619,79.128 97.910 C 79.264 96.127,80.045 95.082,81.857 94.260 C 83.008 93.738,83.646 93.062,84.371 91.596 C 85.336 89.643,86.425 88.975,88.500 89.065 C 88.885 89.082,89.200 88.939,89.200 88.748 C 89.200 88.557,89.335 88.421,89.500 88.447 C 90.485 88.603,91.132 88.301,91.315 87.602 C 91.430 87.163,91.856 86.681,92.262 86.531 C 92.668 86.381,93.090 86.137,93.200 85.988 C 93.310 85.839,94.390 85.352,95.600 84.904 C 97.712 84.123,97.832 84.000,98.611 81.807 C 99.806 78.443,101.045 78.038,107.099 79.027 C 108.737 79.295,108.807 79.263,109.031 78.153 C 109.319 76.724,110.622 75.186,112.201 74.412 C 114.267 73.398,129.264 72.910,138.000 73.572 M92.032 96.080 C 92.014 96.454,91.685 96.944,91.300 97.168 C 90.637 97.554,90.637 97.576,91.313 97.588 C 92.093 97.601,92.595 96.723,92.269 95.913 C 92.137 95.583,92.052 95.643,92.032 96.080 M162.800 96.613 C 162.800 96.949,163.078 97.332,163.417 97.462 C 164.321 97.809,164.369 97.498,163.533 96.700 C 162.913 96.108,162.800 96.094,162.800 96.613 M87.116 101.076 C 86.989 101.564,86.485 102.009,85.946 102.112 C 85.087 102.275,85.102 102.296,86.113 102.346 C 87.230 102.400,87.833 101.699,87.508 100.724 C 87.414 100.443,87.241 100.599,87.116 101.076 M168.000 102.055 C 168.000 102.245,168.450 102.400,169.000 102.400 C 169.550 102.400,170.000 102.331,170.000 102.247 C 170.000 102.162,169.550 102.007,169.000 101.902 C 168.450 101.797,168.000 101.866,168.000 102.055 M168.000 145.400 L 168.000 148.000 163.000 148.000 L 158.000 148.000 158.000 150.381 L 158.000 152.762 155.500 152.881 L 153.000 153.000 152.881 155.500 L 152.762 158.000 150.381 158.000 L 148.000 158.000 148.000 160.381 L 148.000 162.762 145.500 162.881 L 143.000 163.000 142.888 167.900 L 142.775 172.800 140.374 172.800 L 137.972 172.800 138.050 179.500 C 138.093 183.185,138.100 187.676,138.064 189.481 L 138.000 192.762 135.500 192.881 L 133.000 193.000 133.000 205.200 L 133.000 217.400 135.500 217.519 L 138.000 217.638 138.067 220.719 C 138.104 222.414,138.094 226.905,138.044 230.700 L 137.954 237.600 140.365 237.600 L 142.775 237.600 142.888 242.500 L 143.000 247.400 145.500 247.519 L 148.000 247.638 148.000 250.019 L 148.000 252.400 150.381 252.400 L 152.762 252.400 152.881 254.900 L 153.000 257.400 155.500 257.519 L 158.000 257.638 158.000 260.019 L 158.000 262.400 163.000 262.400 L 168.000 262.400 168.000 265.000 L 168.000 267.600 175.000 267.600 C 179.400 267.600,182.000 267.451,182.000 267.200 C 182.000 266.980,182.720 266.800,183.600 266.800 C 184.480 266.800,185.200 266.980,185.200 267.200 C 185.200 267.458,189.733 267.600,198.000 267.600 C 206.267 267.600,210.800 267.458,210.800 267.200 C 210.800 266.980,211.430 266.800,212.200 266.800 C 212.970 266.800,213.600 266.984,213.600 267.209 C 213.600 267.477,215.989 267.581,220.500 267.509 L 227.400 267.400 227.519 264.912 L 227.638 262.424 232.519 262.312 L 237.400 262.200 237.519 259.919 L 237.639 257.639 239.919 257.519 L 242.200 257.400 242.319 254.919 L 242.437 252.437 244.919 252.319 L 247.400 252.200 247.519 249.919 L 247.639 247.639 249.919 247.519 L 252.200 247.400 252.319 244.919 L 252.437 242.437 254.919 242.319 L 257.400 242.200 257.510 235.251 C 257.603 229.362,257.525 228.233,257.002 227.851 C 256.523 227.501,257.036 227.400,259.292 227.400 L 262.200 227.400 262.200 205.200 L 262.200 183.000 259.900 182.880 L 257.600 182.760 257.600 175.380 L 257.600 168.000 255.019 168.000 L 252.438 168.000 252.319 165.500 L 252.200 163.000 249.900 162.880 L 247.600 162.760 247.600 160.380 L 247.600 158.000 245.019 158.000 L 242.438 158.000 242.319 155.500 L 242.200 153.000 239.900 152.880 L 237.600 152.760 237.600 150.380 L 237.600 148.000 232.619 148.000 L 227.638 148.000 227.519 145.500 L 227.400 143.000 205.700 142.897 C 188.473 142.814,184.000 142.897,184.000 143.297 C 184.000 143.589,183.498 143.800,182.800 143.800 C 182.107 143.800,181.600 143.589,181.600 143.300 C 181.600 142.920,179.973 142.800,174.800 142.800 L 168.000 142.800 168.000 145.400 M261.496 207.085 C 261.416 208.358,261.351 207.420,261.350 205.000 C 261.349 202.580,261.414 201.538,261.494 202.685 C 261.575 203.832,261.576 205.812,261.496 207.085 M260.693 206.489 C 260.609 207.430,260.539 206.760,260.537 205.000 C 260.536 203.240,260.605 202.470,260.691 203.289 C 260.777 204.109,260.778 205.549,260.693 206.489 M191.300 267.089 C 190.585 267.178,189.415 267.178,188.700 267.089 C 187.985 267.001,188.570 266.928,190.000 266.928 C 191.430 266.928,192.015 267.001,191.300 267.089 M207.300 267.089 C 206.585 267.178,205.415 267.178,204.700 267.089 C 203.985 267.001,204.570 266.928,206.000 266.928 C 207.430 266.928,208.015 267.001,207.300 267.089 M192.938 283.417 C 192.591 284.321,192.902 284.369,193.700 283.533 C 194.292 282.913,194.306 282.800,193.787 282.800 C 193.451 282.800,193.068 283.078,192.938 283.417 M86.410 308.900 C 86.923 309.449,87.185 310.151,87.081 310.700 C 86.988 311.195,87.066 311.600,87.255 311.600 C 87.445 311.600,87.600 310.790,87.600 309.800 C 87.600 308.139,87.521 308.000,86.584 308.000 L 85.569 308.000 86.410 308.900 M90.875 313.238 C 91.467 313.465,92.036 314.044,92.139 314.525 C 92.257 315.075,92.303 314.954,92.263 314.200 C 92.209 313.169,92.031 312.988,91.000 312.913 L 89.800 312.826 90.875 313.238 M162.950 313.387 C 162.826 313.710,162.817 314.205,162.931 314.487 C 163.058 314.804,163.149 314.728,163.168 314.287 C 163.186 313.895,163.605 313.411,164.100 313.212 L 165.000 312.851 164.087 312.825 C 163.586 312.811,163.074 313.064,162.950 313.387 M302.828 313.900 C 302.813 314.615,302.980 315.200,303.200 315.200 C 303.675 315.200,303.675 314.505,303.200 313.400 C 302.912 312.730,302.852 312.811,302.828 313.900 " stroke="none" fill="#04fcfc" fill-rule="evenodd"></path><path id="path1" d="M120.600 76.272 C 117.382 76.682,116.524 77.461,116.446 80.045 L 116.375 82.421 127.910 82.388 L 139.444 82.355 139.290 80.078 C 139.099 77.236,138.599 76.717,135.708 76.356 C 133.333 76.059,122.736 76.001,120.600 76.272 M259.341 76.339 C 256.520 76.639,255.216 77.540,255.284 79.144 C 255.309 79.725,255.222 80.695,255.091 81.300 L 254.853 82.400 266.791 82.400 C 279.424 82.400,278.984 82.461,278.390 80.800 C 278.350 80.690,278.322 79.910,278.326 79.066 C 278.339 76.675,276.996 76.275,268.600 76.166 C 264.860 76.118,260.694 76.196,259.341 76.339 M241.700 81.576 C 240.932 82.218,240.800 82.719,240.800 84.995 L 240.800 87.661 244.100 87.531 L 247.400 87.400 247.529 84.956 L 247.659 82.511 245.707 81.873 C 244.634 81.522,243.496 81.142,243.178 81.029 C 242.860 80.916,242.195 81.162,241.700 81.576 M285.800 81.085 C 285.360 81.191,284.829 81.440,284.620 81.639 C 284.411 81.837,283.916 82.000,283.520 82.000 C 282.916 82.000,282.800 82.346,282.800 84.138 C 282.800 87.243,283.340 87.600,288.037 87.600 L 291.811 87.600 291.923 85.081 L 292.035 82.562 289.910 81.681 C 287.780 80.798,287.289 80.727,285.800 81.085 M102.731 81.915 C 102.154 82.029,101.538 83.859,101.424 85.800 C 101.411 86.020,100.565 86.296,99.545 86.413 C 96.947 86.712,96.493 87.223,96.335 90.021 C 96.202 92.367,96.215 92.400,97.200 92.234 C 97.750 92.141,98.740 92.048,99.400 92.027 C 101.183 91.969,101.712 91.455,101.969 89.534 L 102.200 87.800 106.078 87.523 C 110.943 87.176,111.867 86.658,112.066 84.163 C 112.187 82.632,112.090 82.338,111.404 82.168 C 110.433 81.927,103.672 81.730,102.731 81.915 M146.600 81.905 C 142.947 82.095,142.860 82.152,143.235 84.094 C 143.417 85.032,143.573 85.906,143.583 86.036 C 143.631 86.687,146.203 87.303,149.685 87.498 L 153.571 87.715 154.645 89.265 C 155.236 90.117,156.144 90.921,156.665 91.052 C 157.185 91.182,157.774 91.583,157.975 91.941 C 158.176 92.300,158.458 92.476,158.601 92.332 C 159.052 91.882,159.112 89.993,158.684 89.728 C 158.434 89.574,158.401 89.678,158.600 90.000 C 158.822 90.360,158.768 90.427,158.427 90.217 C 158.069 89.996,158.052 89.788,158.365 89.475 C 158.859 88.981,158.955 87.620,158.500 87.561 C 158.335 87.539,157.355 87.466,156.322 87.398 C 153.737 87.227,153.600 87.075,153.600 84.376 C 153.600 83.069,153.465 81.984,153.300 81.965 C 152.341 81.851,148.309 81.815,146.600 81.905 M293.800 86.293 C 292.643 86.582,292.529 86.940,292.803 89.426 C 293.100 92.128,293.448 92.386,296.803 92.394 L 299.406 92.400 299.521 90.018 C 299.694 86.433,297.904 85.267,293.800 86.293 M227.058 92.071 C 226.622 92.315,226.400 92.968,226.400 94.006 C 226.400 95.785,225.673 96.400,223.570 96.400 C 222.222 96.400,221.235 97.279,221.213 98.500 C 221.193 99.586,219.724 100.800,218.429 100.800 C 217.168 100.800,215.600 102.347,215.600 103.592 C 215.600 104.430,214.540 105.405,213.200 105.800 C 211.785 106.217,210.801 107.183,210.795 108.162 C 210.783 109.986,210.321 110.754,209.072 111.028 C 207.045 111.473,206.400 112.069,206.400 113.496 C 206.400 115.192,205.192 116.400,203.496 116.400 C 202.017 116.400,201.401 117.123,200.983 119.351 C 200.759 120.546,200.540 120.800,199.736 120.800 C 198.084 120.800,196.491 121.877,196.203 123.188 C 195.920 124.476,194.312 126.000,193.235 126.000 C 191.842 126.000,190.800 127.182,190.800 128.761 C 190.800 131.486,185.725 133.202,183.450 131.245 C 182.736 130.631,182.711 130.658,182.929 131.800 C 183.054 132.460,183.267 133.733,183.402 134.628 C 184.021 138.753,191.977 138.079,191.994 133.900 L 192.000 132.400 194.200 132.400 C 195.410 132.400,196.515 132.415,196.655 132.434 C 197.206 132.508,197.588 131.313,197.594 129.500 L 197.600 127.600 199.500 127.594 C 201.313 127.588,202.508 127.206,202.434 126.655 C 202.415 126.515,202.400 125.509,202.400 124.419 L 202.400 122.438 204.900 122.319 L 207.400 122.200 207.519 119.919 L 207.639 117.639 209.919 117.519 L 212.200 117.400 212.319 114.900 L 212.438 112.400 214.519 112.394 C 216.490 112.388,217.710 112.021,217.634 111.455 C 217.615 111.315,217.600 110.390,217.600 109.400 L 217.600 107.600 219.757 107.600 C 222.227 107.600,222.400 107.389,222.400 104.386 L 222.400 102.438 224.900 102.319 L 227.400 102.200 227.520 99.900 C 227.651 97.387,227.675 97.371,230.957 97.594 C 231.881 97.656,232.063 97.540,231.861 97.015 C 231.714 96.631,231.773 96.460,232.005 96.603 C 232.247 96.753,232.400 95.983,232.400 94.611 C 232.400 93.184,232.219 92.311,231.900 92.197 C 230.801 91.806,227.678 91.725,227.058 92.071 M302.800 96.503 C 302.800 96.864,303.250 97.644,303.800 98.238 C 304.350 98.831,304.800 99.561,304.800 99.858 C 304.800 100.156,304.868 100.400,304.951 100.400 C 305.034 100.400,305.754 100.672,306.551 101.005 L 308.000 101.611 308.000 99.477 L 308.000 97.343 305.900 97.255 C 304.496 97.197,303.634 96.949,303.300 96.507 C 302.838 95.898,302.800 95.898,302.800 96.503 M308.000 102.592 C 308.000 104.540,309.268 106.315,311.008 106.802 L 312.764 107.294 312.882 109.747 L 313.000 112.200 315.411 112.317 L 317.821 112.434 318.464 110.036 C 319.241 107.136,318.766 106.400,316.117 106.400 C 314.251 106.400,313.662 105.862,313.445 103.959 C 313.359 103.212,313.269 102.465,313.245 102.300 C 313.152 101.675,308.000 101.962,308.000 102.592 M82.064 105.629 C 82.013 106.131,81.602 106.226,80.027 106.100 C 77.124 105.869,76.400 106.402,76.400 108.770 C 76.400 111.714,77.275 112.575,79.898 112.214 L 81.951 111.932 82.209 109.866 C 82.350 108.730,82.390 107.170,82.297 106.400 C 82.204 105.630,82.099 105.283,82.064 105.629 M172.802 107.591 C 172.808 111.314,173.775 112.371,177.202 112.396 C 178.475 112.405,179.457 107.873,178.445 106.655 C 178.067 106.198,177.260 106.055,175.366 106.109 L 172.800 106.181 172.802 107.591 M178.144 115.402 C 178.045 115.660,178.017 117.295,178.082 119.035 L 178.200 122.200 180.436 122.318 C 182.968 122.452,183.212 122.267,183.964 119.640 C 184.402 118.110,184.376 117.678,183.765 116.322 L 183.062 114.763 180.693 114.849 C 179.325 114.898,178.247 115.132,178.144 115.402 M72.534 116.881 C 70.989 118.912,70.583 122.412,71.567 125.215 L 72.335 127.400 74.400 127.522 C 77.502 127.705,77.600 127.525,77.600 121.617 L 77.600 116.531 75.264 116.447 C 73.734 116.392,72.793 116.542,72.534 116.881 M318.088 122.506 L 318.200 127.400 320.600 127.400 L 323.000 127.400 323.706 125.200 C 325.118 120.794,323.835 118.063,320.222 117.785 L 317.975 117.613 318.088 122.506 M203.280 273.280 C 202.617 273.943,202.657 278.184,203.332 278.744 C 203.625 278.987,205.521 279.208,207.546 279.235 C 210.194 279.271,211.392 279.449,211.814 279.871 C 212.329 280.386,212.400 280.050,212.400 277.109 C 212.400 272.837,212.358 272.800,207.600 272.800 C 205.147 272.800,203.587 272.973,203.280 273.280 M72.289 282.112 C 72.168 283.260,71.784 284.740,71.437 285.400 C 70.630 286.932,70.637 288.183,71.467 290.854 C 72.321 293.600,72.172 293.484,75.100 293.682 L 77.600 293.851 77.600 288.958 C 77.600 283.383,77.467 282.800,76.200 282.800 C 75.697 282.800,75.191 282.552,75.074 282.250 C 74.958 281.947,74.334 281.322,73.686 280.862 L 72.509 280.023 72.289 282.112 M321.200 281.270 C 320.430 282.061,319.440 282.776,319.000 282.859 C 318.074 283.034,317.496 292.800,318.411 292.800 C 318.651 292.800,318.761 292.660,318.656 292.490 C 318.550 292.319,319.485 292.184,320.732 292.190 L 323.000 292.200 323.743 289.854 C 324.452 287.612,324.454 287.407,323.799 285.254 C 323.421 284.014,322.997 282.287,322.856 281.416 L 322.600 279.832 321.200 281.270 M211.432 290.401 C 210.677 292.923,211.014 296.997,212.087 298.300 C 212.592 298.915,216.800 298.983,216.800 298.376 C 216.800 298.143,216.985 298.067,217.212 298.208 C 217.489 298.379,217.588 296.778,217.512 293.331 L 217.400 288.200 214.781 288.084 L 212.161 287.967 211.432 290.401 M183.287 293.296 C 183.053 293.577,182.866 294.526,182.872 295.404 C 182.877 296.282,182.864 297.225,182.841 297.500 C 182.813 297.840,182.031 298.000,180.400 298.000 L 178.000 298.000 178.000 300.400 L 178.000 302.800 175.880 302.800 C 173.230 302.800,172.800 303.230,172.800 305.880 L 172.800 308.000 174.800 308.050 C 175.900 308.078,177.103 308.123,177.474 308.150 C 177.955 308.186,178.191 307.815,178.301 306.854 C 178.626 304.010,178.987 303.600,181.166 303.600 C 183.517 303.600,183.527 303.588,183.644 300.706 C 183.743 298.246,184.005 298.017,186.721 298.005 L 188.042 298.000 187.960 295.460 L 187.878 292.919 185.795 292.851 C 184.514 292.810,183.548 292.981,183.287 293.296 M76.899 298.900 C 75.280 302.246,76.306 304.400,79.520 304.400 C 80.576 304.400,81.676 304.625,81.965 304.900 C 82.545 305.452,82.434 299.426,81.847 298.476 C 81.274 297.549,77.393 297.881,76.899 298.900 M313.266 298.351 C 312.972 298.537,312.747 298.804,312.766 298.945 C 313.116 301.559,312.760 302.800,311.660 302.800 C 308.841 302.800,308.000 303.486,308.000 305.788 L 308.000 307.898 306.500 308.155 C 304.252 308.541,303.606 309.234,303.331 311.554 L 303.089 313.600 305.537 313.600 C 307.882 313.600,307.995 313.554,308.225 312.500 C 308.854 309.618,309.198 309.200,310.949 309.194 C 313.156 309.186,313.493 308.907,314.210 306.490 C 314.769 304.609,314.966 304.382,316.417 303.948 C 318.680 303.270,318.873 302.899,318.344 300.261 L 317.890 298.000 315.845 298.006 C 314.720 298.009,313.560 298.165,313.266 298.351 M222.000 310.358 C 222.000 313.094,222.050 313.151,224.570 313.294 C 226.570 313.408,226.906 313.858,226.972 316.515 C 227.009 317.990,227.494 318.226,230.160 318.063 L 232.400 317.926 232.400 315.996 C 232.400 313.012,232.224 312.800,229.757 312.800 L 227.600 312.800 227.561 311.500 C 227.453 307.940,227.681 308.212,224.700 308.082 L 222.000 307.963 222.000 310.358 M96.328 320.499 C 96.472 323.299,96.998 323.997,98.976 324.005 C 101.539 324.017,102.000 324.347,102.000 326.169 L 102.000 327.845 104.707 328.495 C 107.193 329.092,111.000 328.721,112.341 327.753 C 112.419 327.697,112.357 326.744,112.205 325.634 C 111.870 323.197,110.977 322.806,105.745 322.802 L 102.491 322.800 102.208 320.900 C 101.816 318.264,101.492 318.000,98.651 317.999 L 96.200 317.999 96.328 320.499 M154.507 318.476 C 153.924 318.763,153.532 319.415,153.376 320.358 C 153.245 321.151,153.075 322.004,152.999 322.254 C 152.912 322.541,151.311 322.764,148.635 322.863 C 143.783 323.043,143.337 323.291,142.964 326.010 L 142.718 327.802 145.459 328.498 C 149.979 329.646,153.155 328.705,153.463 326.126 C 153.757 323.655,153.814 323.600,156.087 323.594 C 158.903 323.586,159.260 323.292,159.296 320.956 C 159.312 319.880,159.475 318.804,159.657 318.565 C 160.113 317.969,155.690 317.892,154.507 318.476 M293.043 318.633 C 292.245 320.711,292.781 323.515,294.060 323.961 C 297.552 325.178,299.695 323.954,299.437 320.886 C 299.350 319.849,299.261 318.775,299.240 318.500 C 299.175 317.690,293.357 317.814,293.043 318.633 M240.925 325.284 C 240.900 328.934,241.613 329.502,245.052 328.571 L 247.635 327.872 247.517 325.436 L 247.400 323.000 244.171 322.930 L 240.942 322.860 240.925 325.284 M283.298 323.262 C 281.947 324.613,282.691 327.850,284.513 328.546 C 288.752 330.164,291.375 328.956,291.454 325.349 L 291.507 322.897 287.652 322.831 C 285.030 322.785,283.636 322.924,283.298 323.262 " stroke="none" fill="#1dbdfc" fill-rule="evenodd"></path><path id="path2" d="M119.200 74.736 C 115.222 75.086,112.800 76.586,112.800 78.700 C 112.800 79.342,112.639 79.556,112.300 79.365 C 111.900 79.139,111.900 79.190,112.300 79.621 C 112.575 79.918,112.800 80.304,112.800 80.480 C 112.800 81.024,107.364 80.833,104.948 80.203 C 102.072 79.454,99.993 80.848,99.408 83.915 C 99.206 84.976,98.811 85.400,97.365 86.102 C 95.408 87.053,95.023 87.830,95.264 90.347 C 95.372 91.481,95.275 91.850,94.906 91.709 C 94.628 91.602,94.400 91.726,94.400 91.985 C 94.400 93.931,96.211 91.995,96.319 89.933 C 96.460 87.252,96.955 86.711,99.545 86.413 C 100.565 86.296,101.411 86.020,101.424 85.800 C 101.520 84.173,102.152 81.994,102.535 81.966 C 104.212 81.843,108.424 81.919,112.100 82.137 L 116.400 82.392 116.447 80.496 C 116.473 79.453,116.472 78.403,116.444 78.162 C 116.221 76.235,135.360 75.102,138.076 76.882 C 139.165 77.596,139.785 80.569,139.100 81.793 C 138.841 82.255,139.565 82.309,143.495 82.123 C 154.415 81.607,153.600 81.422,153.600 84.419 C 153.600 87.021,153.604 87.027,155.700 87.358 C 157.283 87.609,157.716 87.104,156.484 86.445 C 156.019 86.196,155.736 85.525,155.677 84.531 C 155.558 82.539,154.847 80.800,154.151 80.800 C 153.848 80.800,153.600 80.632,153.600 80.427 C 153.600 79.704,152.114 79.595,150.416 80.194 C 147.170 81.340,143.166 80.878,143.436 79.390 C 143.648 78.220,142.106 76.331,140.199 75.426 C 138.626 74.680,124.954 74.231,119.200 74.736 M258.200 74.762 C 252.928 75.248,250.024 77.959,251.773 80.762 C 252.013 81.147,251.978 81.234,251.662 81.038 C 251.368 80.856,251.200 81.063,251.200 81.607 C 251.200 82.377,251.385 82.449,253.063 82.327 C 255.064 82.181,255.154 82.058,255.320 79.243 C 255.484 76.463,256.378 76.221,266.516 76.210 C 277.171 76.198,278.340 76.481,278.326 79.066 C 278.322 79.910,278.359 80.735,278.409 80.900 C 278.459 81.065,278.522 81.416,278.550 81.681 C 278.578 81.945,279.258 82.226,280.062 82.304 L 281.525 82.447 281.449 79.790 C 281.369 76.959,280.851 76.170,278.400 75.146 C 277.174 74.633,262.600 74.356,258.200 74.762 M240.892 80.472 C 239.961 81.116,239.181 81.769,239.159 81.922 C 238.649 85.367,238.914 87.600,239.832 87.600 C 240.759 87.600,240.801 87.486,240.813 84.900 C 240.828 81.493,241.839 80.390,244.089 81.324 C 248.139 83.007,248.391 82.030,244.392 80.150 L 242.584 79.300 240.892 80.472 M285.786 79.860 C 284.360 80.164,282.400 81.968,283.476 81.986 C 283.958 81.994,284.451 81.840,284.572 81.645 C 285.124 80.752,287.686 80.759,289.860 81.660 L 292.054 82.570 291.979 84.785 C 291.879 87.731,291.930 87.926,292.583 87.065 C 292.971 86.552,293.861 86.264,295.519 86.114 C 298.816 85.815,299.714 86.669,299.529 89.929 C 299.411 92.003,299.475 92.211,300.270 92.324 C 301.111 92.444,301.132 92.353,300.917 89.545 C 300.668 86.285,300.125 85.530,297.499 84.791 C 296.618 84.543,295.709 83.924,295.299 83.291 C 293.570 80.624,289.346 79.101,285.786 79.860 M231.670 86.553 C 231.247 87.019,230.708 87.773,230.474 88.230 C 230.239 88.686,229.362 89.273,228.524 89.535 C 226.563 90.147,225.853 90.714,224.916 92.416 C 224.496 93.177,223.560 94.102,222.834 94.470 C 221.258 95.271,220.313 96.234,219.432 97.938 C 219.073 98.632,218.569 99.200,218.311 99.200 C 217.283 99.200,214.839 101.312,214.598 102.409 C 214.421 103.215,213.886 103.771,212.743 104.336 C 211.147 105.126,209.200 107.286,209.200 108.267 C 209.200 108.549,208.650 109.064,207.978 109.411 C 206.198 110.332,204.800 111.648,204.800 112.402 C 204.800 113.209,203.171 114.800,202.346 114.800 C 201.655 114.800,200.168 116.393,199.509 117.840 C 199.262 118.383,198.191 119.299,197.130 119.877 C 196.068 120.455,195.200 121.155,195.200 121.433 C 195.200 122.214,193.269 124.326,192.282 124.624 C 190.843 125.058,189.200 126.850,189.200 127.986 C 189.200 130.610,183.293 132.438,183.154 129.857 C 183.115 129.138,183.077 129.117,182.919 129.730 C 182.541 131.190,183.801 131.895,186.617 131.801 C 189.809 131.694,190.800 130.974,190.800 128.761 C 190.800 127.182,191.842 126.000,193.235 126.000 C 194.312 126.000,195.920 124.476,196.203 123.188 C 196.491 121.877,198.084 120.800,199.736 120.800 C 200.540 120.800,200.759 120.546,200.983 119.351 C 201.401 117.123,202.017 116.400,203.496 116.400 C 204.267 116.400,205.127 116.073,205.600 115.600 C 206.073 115.127,206.400 114.267,206.400 113.496 C 206.400 112.069,207.045 111.473,209.072 111.028 C 210.321 110.754,210.783 109.986,210.795 108.162 C 210.801 107.183,211.785 106.217,213.200 105.800 C 214.540 105.405,215.600 104.430,215.600 103.592 C 215.600 102.347,217.168 100.800,218.429 100.800 C 219.724 100.800,221.193 99.586,221.213 98.500 C 221.235 97.279,222.222 96.400,223.570 96.400 C 225.675 96.400,226.400 95.785,226.400 94.000 C 226.400 92.264,227.087 91.645,228.800 91.835 C 234.154 92.429,237.580 92.138,236.964 91.142 C 236.848 90.954,236.914 90.800,237.111 90.800 C 237.703 90.800,237.441 87.668,236.798 87.052 C 235.590 85.897,232.536 85.600,231.670 86.553 M161.200 86.258 C 157.582 86.793,157.395 86.861,158.105 87.380 C 158.896 87.958,159.004 88.836,158.365 89.475 C 158.052 89.788,158.069 89.996,158.427 90.217 C 158.768 90.427,158.822 90.360,158.600 90.000 C 158.401 89.678,158.434 89.574,158.684 89.728 C 158.909 89.867,159.043 90.428,158.983 90.975 C 158.860 92.096,159.424 92.377,161.592 92.279 C 162.939 92.218,162.982 92.261,162.916 93.608 C 162.771 96.588,163.833 97.667,166.700 97.452 C 167.895 97.362,168.004 97.453,168.051 98.577 C 168.078 99.250,168.123 100.249,168.151 100.799 C 168.180 101.386,168.447 101.807,168.800 101.822 C 169.130 101.835,169.733 101.997,170.140 102.181 C 170.622 102.399,170.989 102.342,171.190 102.016 C 171.410 101.660,171.580 101.643,171.774 101.957 C 172.301 102.811,172.646 102.382,173.061 100.353 C 173.448 98.465,173.409 98.224,172.553 97.253 C 172.043 96.674,171.620 96.380,171.613 96.600 C 171.606 96.820,171.167 97.000,170.638 97.000 C 170.109 97.000,169.760 96.865,169.862 96.700 C 169.964 96.535,169.902 96.400,169.724 96.400 C 169.546 96.400,169.349 95.479,169.287 94.354 C 169.163 92.095,168.162 90.838,166.471 90.813 C 165.473 90.799,164.669 90.142,164.486 89.190 C 164.043 86.888,163.033 85.987,161.200 86.258 M87.067 92.292 C 86.947 92.486,86.756 93.416,86.642 94.360 C 86.376 96.572,85.877 97.130,84.290 96.998 C 82.671 96.862,82.000 97.390,82.000 98.799 C 82.000 100.680,82.480 102.517,82.826 101.958 C 83.078 101.551,83.261 101.553,83.764 101.970 C 84.149 102.290,84.661 102.366,85.095 102.168 C 85.483 101.991,86.055 101.835,86.367 101.821 C 86.679 101.808,87.008 101.527,87.098 101.198 C 87.242 100.669,87.212 100.670,86.837 101.200 C 86.536 101.625,86.410 101.651,86.406 101.287 C 86.403 101.006,86.679 100.668,87.021 100.537 C 87.468 100.365,87.572 99.985,87.395 99.177 C 87.112 97.890,88.090 97.089,89.494 97.456 C 90.585 97.742,92.124 96.899,91.844 96.169 C 91.723 95.856,91.797 95.600,92.008 95.600 C 92.219 95.600,92.348 94.835,92.295 93.900 L 92.200 92.200 89.742 92.070 C 88.390 91.999,87.186 92.099,87.067 92.292 M302.836 94.926 C 302.784 95.970,303.530 97.200,304.214 97.200 C 304.536 97.200,304.800 97.026,304.800 96.813 C 304.800 96.599,304.539 96.525,304.220 96.647 C 303.821 96.801,303.521 96.454,303.257 95.535 C 303.045 94.801,302.856 94.527,302.836 94.926 M305.200 96.955 C 305.200 97.283,307.646 97.449,307.841 97.133 C 307.955 96.950,307.407 96.800,306.624 96.800 C 305.841 96.800,305.200 96.870,305.200 96.955 M308.028 99.300 C 308.048 100.503,308.145 100.774,308.359 100.227 C 308.642 99.505,308.493 97.600,308.153 97.600 C 308.069 97.600,308.013 98.365,308.028 99.300 M308.000 101.592 C 308.000 101.827,309.100 102.000,310.600 102.000 C 312.030 102.000,313.220 102.135,313.245 102.300 C 313.269 102.465,313.359 103.212,313.445 103.959 C 313.662 105.862,314.251 106.400,316.117 106.400 C 318.637 106.400,319.278 107.218,318.575 109.535 C 317.591 112.777,318.260 113.040,319.793 110.013 C 321.258 107.123,320.210 105.027,317.100 104.629 C 315.267 104.394,314.000 103.742,314.000 103.035 C 314.000 102.740,313.715 102.261,313.366 101.972 C 312.594 101.331,308.000 101.006,308.000 101.592 M173.300 104.287 C 171.290 105.008,173.114 106.328,175.840 106.125 C 178.589 105.921,180.142 108.842,178.425 110.985 C 178.241 111.213,178.078 112.217,178.062 113.215 L 178.033 115.031 180.539 114.879 L 183.045 114.727 183.757 116.304 C 184.486 117.922,184.191 120.319,183.054 122.000 C 182.831 122.330,183.166 122.112,183.799 121.516 C 186.754 118.733,185.315 112.000,181.765 112.000 C 181.024 112.000,180.802 111.658,180.405 109.900 C 179.491 105.861,178.532 104.438,176.800 104.556 C 176.250 104.593,175.668 104.438,175.506 104.212 C 175.320 103.950,175.210 103.988,175.206 104.314 C 175.202 104.674,174.990 104.720,174.500 104.468 C 174.115 104.270,173.575 104.189,173.300 104.287 M76.277 105.745 C 74.887 107.216,74.756 111.805,76.091 112.229 C 77.445 112.659,76.788 113.009,74.592 113.026 C 71.946 113.047,71.478 113.435,70.400 116.505 C 69.395 119.364,69.351 123.069,70.300 124.969 C 71.051 126.472,72.276 127.362,71.866 126.106 C 70.689 122.505,70.666 122.191,71.404 119.778 C 72.417 116.466,72.569 116.331,75.170 116.451 L 77.400 116.554 77.426 114.377 C 77.440 113.180,77.215 111.845,76.926 111.411 C 75.046 108.590,76.657 105.832,80.027 106.100 C 81.112 106.187,82.000 106.125,82.000 105.962 C 82.000 105.799,82.095 105.417,82.212 105.113 C 82.694 103.856,77.544 104.405,76.277 105.745 M318.448 115.312 C 317.841 115.919,317.879 117.592,318.500 117.634 C 323.215 117.952,323.293 117.999,323.944 120.906 C 324.356 122.749,324.318 123.325,323.647 125.359 L 322.876 127.695 324.000 126.464 C 325.576 124.739,326.013 120.553,324.967 117.200 C 324.468 115.600,319.577 114.183,318.448 115.312 M198.473 278.639 C 198.183 278.961,197.978 279.624,198.017 280.112 C 198.213 282.549,198.111 282.688,195.976 282.893 C 193.456 283.135,193.135 283.456,192.893 285.976 C 192.692 288.060,192.338 288.320,190.100 288.030 C 189.825 287.994,189.600 288.153,189.600 288.382 C 189.600 288.612,189.409 288.800,189.176 288.800 C 188.943 288.800,188.888 288.575,189.053 288.300 C 189.257 287.960,189.137 287.976,188.677 288.349 C 187.944 288.943,187.749 289.402,188.400 289.000 C 188.620 288.864,188.800 288.943,188.800 289.176 C 188.800 289.409,188.631 289.600,188.425 289.600 C 188.219 289.600,188.047 289.915,188.044 290.300 C 188.041 290.685,188.029 292.575,188.018 294.500 L 187.998 298.000 186.699 298.005 C 184.007 298.017,183.743 298.250,183.644 300.706 C 183.527 303.588,183.517 303.600,181.166 303.600 C 178.992 303.600,178.626 304.013,178.305 306.821 L 178.155 308.134 173.878 308.083 C 171.378 308.054,169.600 308.192,169.600 308.416 C 169.600 308.627,169.409 308.800,169.176 308.800 C 168.943 308.800,168.888 308.575,169.053 308.300 C 169.257 307.960,169.137 307.976,168.677 308.349 C 167.944 308.943,167.749 309.402,168.400 309.000 C 168.620 308.864,168.800 308.943,168.800 309.176 C 168.800 309.409,168.612 309.600,168.382 309.600 C 168.153 309.600,167.994 309.825,168.030 310.100 C 168.319 312.328,168.034 312.800,166.400 312.800 C 165.520 312.800,164.800 312.960,164.800 313.156 C 164.800 313.351,164.485 313.486,164.100 313.456 C 163.661 313.421,163.421 313.661,163.456 314.100 C 163.486 314.485,163.351 314.800,163.156 314.800 C 162.960 314.800,162.800 315.520,162.800 316.400 C 162.800 318.012,162.222 318.312,159.584 318.075 C 159.465 318.065,159.347 319.147,159.322 320.481 C 159.268 323.331,159.004 323.585,156.087 323.594 C 153.810 323.600,153.758 323.651,153.459 326.154 C 153.357 327.008,153.051 327.845,152.779 328.013 C 151.763 328.641,147.699 329.218,146.752 328.868 C 144.447 328.018,143.427 327.910,143.979 328.575 C 144.264 328.919,144.806 329.200,145.182 329.200 C 145.559 329.200,145.992 329.325,146.145 329.478 C 146.530 329.863,147.384 330.015,150.400 330.235 C 153.521 330.463,154.269 329.982,155.599 326.892 C 156.478 324.848,156.920 324.550,159.600 324.191 C 159.930 324.147,160.470 324.007,160.800 323.879 C 161.130 323.751,161.741 323.591,162.157 323.523 C 163.073 323.374,163.481 322.676,163.792 320.722 C 164.016 319.316,164.118 319.231,165.901 318.964 C 168.234 318.614,168.614 318.237,168.960 315.929 C 169.246 314.017,169.747 313.619,171.877 313.605 C 172.762 313.600,174.128 312.131,173.778 311.564 C 173.559 311.210,174.666 310.809,176.507 310.576 C 178.144 310.369,179.584 309.293,180.377 307.683 C 180.720 306.988,181.540 306.157,182.200 305.837 C 183.581 305.168,185.193 303.492,185.987 301.900 C 186.288 301.295,186.684 300.800,186.866 300.800 C 187.749 300.800,190.400 297.844,190.405 296.853 C 190.415 294.946,190.846 294.125,192.131 293.559 C 193.202 293.087,193.454 292.704,193.743 291.100 C 194.099 289.132,194.230 289.039,196.473 289.185 C 197.858 289.275,199.017 288.100,199.363 286.255 C 199.626 284.857,199.702 284.800,201.318 284.793 C 203.090 284.786,204.800 283.545,204.800 282.267 C 204.800 281.276,205.585 281.013,209.175 280.800 C 214.211 280.501,212.963 279.308,207.537 279.235 C 205.042 279.201,203.645 279.008,203.223 278.637 C 202.377 277.892,199.144 277.894,198.473 278.639 M71.583 283.313 C 67.532 286.514,69.554 296.962,74.238 297.028 C 75.342 297.044,76.447 297.182,76.695 297.335 C 76.942 297.488,77.270 297.410,77.424 297.162 C 77.577 296.914,77.454 296.553,77.151 296.361 C 76.752 296.109,76.738 296.011,77.100 296.006 C 77.375 296.003,77.600 295.553,77.600 295.008 C 77.600 293.917,77.053 293.686,74.042 293.505 C 71.562 293.357,69.865 288.400,71.333 285.589 C 71.792 284.709,72.439 282.777,72.263 282.813 C 72.228 282.820,71.922 283.045,71.583 283.313 M323.281 283.200 C 324.344 286.314,324.444 287.835,323.727 290.000 L 322.998 292.200 320.731 292.190 C 319.484 292.184,318.550 292.319,318.656 292.490 C 318.761 292.660,318.644 292.800,318.396 292.800 C 318.148 292.800,318.002 293.205,318.072 293.700 C 318.419 296.139,325.155 294.574,325.215 292.042 C 325.223 291.689,325.331 290.705,325.454 289.855 C 325.802 287.450,325.288 285.102,324.127 283.788 C 323.549 283.135,323.169 282.870,323.281 283.200 M211.266 288.921 C 207.429 293.544,209.630 300.800,214.869 300.800 C 217.398 300.800,218.830 299.207,217.204 298.203 C 216.982 298.065,216.800 298.143,216.800 298.376 C 216.800 298.989,212.592 298.913,212.076 298.291 C 211.073 297.083,210.665 292.702,211.363 290.647 C 212.057 288.604,212.023 288.008,211.266 288.921 M75.829 298.629 C 74.686 299.771,74.991 303.193,76.369 304.702 C 77.482 305.920,82.400 306.683,82.400 305.637 C 82.400 304.892,81.254 304.400,79.520 304.400 C 76.523 304.400,74.904 301.137,76.851 299.020 C 77.790 297.998,76.828 297.630,75.829 298.629 M318.010 298.451 C 318.015 298.753,318.201 299.785,318.422 300.745 C 318.905 302.839,318.624 303.286,316.417 303.948 C 314.966 304.382,314.769 304.609,314.210 306.490 C 313.493 308.907,313.156 309.186,310.949 309.194 C 309.201 309.200,308.852 309.623,308.231 312.475 C 308.047 313.324,307.724 313.583,306.699 313.711 L 305.400 313.872 306.671 313.936 C 307.958 314.001,309.600 312.569,309.600 311.381 C 309.600 311.099,310.298 310.752,311.156 310.607 C 312.966 310.302,315.200 308.612,315.200 307.549 C 315.200 307.074,315.873 306.471,317.100 305.846 C 318.145 305.314,319.436 304.412,319.969 303.841 L 320.938 302.802 319.994 300.788 C 318.991 298.645,317.992 297.469,318.010 298.451 M216.982 303.771 C 216.647 304.282,216.300 305.079,216.211 305.542 C 216.122 306.005,215.873 306.699,215.657 307.085 C 215.250 307.811,216.907 309.715,218.365 310.197 C 218.714 310.313,219.434 311.327,219.965 312.450 C 220.562 313.714,221.325 314.666,221.965 314.947 C 223.357 315.556,224.800 316.857,224.800 317.502 C 224.800 318.522,227.187 320.388,228.828 320.651 C 230.154 320.863,230.529 321.134,230.976 322.205 C 231.703 323.944,231.932 324.035,234.439 323.574 C 235.627 323.355,236.823 323.151,237.095 323.121 C 237.774 323.046,237.657 320.048,236.930 318.881 C 236.384 318.006,236.148 317.966,231.959 318.028 C 227.180 318.099,227.013 318.047,226.972 316.467 C 226.904 313.859,226.562 313.407,224.570 313.294 C 221.919 313.144,221.924 313.152,222.117 308.858 C 222.292 304.976,221.951 302.936,221.203 303.398 C 220.982 303.535,220.800 303.495,220.800 303.309 C 220.800 302.454,217.590 302.843,216.982 303.771 M88.947 313.500 C 88.606 314.031,88.633 314.465,89.059 315.300 C 89.581 316.323,90.400 316.803,90.400 316.086 C 90.400 315.913,90.740 315.771,91.155 315.771 C 91.649 315.771,91.832 315.971,91.687 316.351 C 91.544 316.724,91.631 316.828,91.932 316.642 C 93.091 315.926,91.928 314.546,90.595 315.057 C 90.157 315.225,90.061 315.106,90.247 314.622 C 90.388 314.254,90.741 314.045,91.031 314.157 C 91.353 314.280,91.479 314.150,91.354 313.824 C 91.231 313.503,90.812 313.376,90.312 313.507 C 89.742 313.656,89.566 313.578,89.761 313.263 C 89.918 313.008,89.901 312.800,89.722 312.800 C 89.542 312.800,89.194 313.115,88.947 313.500 M88.144 316.718 C 87.766 317.323,87.830 317.443,88.548 317.478 C 89.016 317.500,89.185 317.435,88.922 317.333 C 88.660 317.232,88.544 316.890,88.665 316.574 C 88.971 315.776,88.682 315.856,88.144 316.718 M94.700 318.244 C 95.025 318.389,95.200 319.366,95.200 321.033 C 95.200 323.048,95.329 323.600,95.800 323.600 C 96.130 323.600,96.400 323.789,96.400 324.021 C 96.400 324.252,96.946 324.632,97.614 324.865 C 98.396 325.138,99.107 325.833,99.609 326.818 C 101.560 330.641,104.213 331.348,109.400 329.424 C 112.518 328.268,112.533 327.637,109.420 328.574 C 107.683 329.097,107.183 329.089,104.737 328.502 L 102.000 327.845 102.000 326.169 C 102.000 324.347,101.539 324.017,98.976 324.005 C 96.994 323.997,96.444 323.293,96.315 320.600 C 96.208 318.365,96.131 318.194,95.200 318.110 C 94.650 318.061,94.425 318.121,94.700 318.244 M299.433 320.456 C 299.660 323.156,298.762 324.400,296.584 324.400 C 295.171 324.400,292.800 323.674,292.800 323.241 C 292.800 323.086,292.362 322.960,291.826 322.960 C 291.238 322.960,290.960 323.127,291.126 323.380 C 293.474 326.977,289.144 330.473,284.661 328.600 C 283.384 328.066,283.251 328.066,283.455 328.600 C 283.582 328.930,283.936 329.200,284.243 329.200 C 284.549 329.200,284.801 329.335,284.803 329.500 C 284.808 329.949,286.828 330.800,287.890 330.800 C 290.308 330.800,295.193 328.155,295.201 326.842 C 295.202 326.709,296.009 326.269,296.994 325.863 C 300.375 324.473,300.800 323.907,300.800 320.796 C 300.800 318.319,300.723 318.055,300.020 318.108 C 299.319 318.161,299.259 318.401,299.433 320.456 M239.457 323.076 C 239.316 323.217,239.200 324.395,239.200 325.694 C 239.200 329.428,241.727 331.555,244.540 330.187 C 247.892 328.556,247.989 327.722,244.719 328.652 C 242.580 329.260,242.454 329.254,241.701 328.501 C 240.876 327.676,240.557 324.228,241.227 323.385 C 241.588 322.930,239.899 322.635,239.457 323.076 " stroke="none" fill="#08d8fc" fill-rule="evenodd"></path><path id="path3" d="M117.200 73.601 C 112.041 73.903,109.615 75.255,109.031 78.153 C 108.807 79.263,108.737 79.295,107.099 79.027 C 101.045 78.038,99.806 78.443,98.611 81.807 C 97.832 84.000,97.712 84.123,95.600 84.904 C 94.390 85.352,93.310 85.839,93.200 85.988 C 93.090 86.137,92.668 86.381,92.262 86.531 C 91.856 86.681,91.430 87.163,91.315 87.602 C 91.132 88.301,90.485 88.603,89.500 88.447 C 89.335 88.421,89.200 88.557,89.200 88.748 C 89.200 88.939,88.885 89.082,88.500 89.065 C 86.425 88.975,85.336 89.643,84.371 91.596 C 83.646 93.062,83.008 93.738,81.857 94.260 C 80.045 95.082,79.264 96.127,79.128 97.910 C 79.074 98.619,78.877 99.200,78.691 99.200 C 78.505 99.200,78.456 99.368,78.583 99.572 C 78.709 99.777,78.627 100.060,78.400 100.200 C 78.173 100.340,78.089 100.621,78.214 100.823 C 78.339 101.025,78.185 101.093,77.873 100.972 C 76.756 100.544,74.308 104.351,73.856 107.218 C 73.670 108.397,72.206 110.109,71.611 109.843 C 71.495 109.791,71.001 110.165,70.514 110.674 C 70.027 111.183,69.734 111.600,69.863 111.600 C 69.992 111.600,69.915 111.825,69.692 112.100 C 67.465 114.846,68.017 125.529,70.461 126.972 C 71.718 127.715,72.628 127.470,71.599 126.666 C 69.506 125.031,68.978 120.551,70.400 116.505 C 71.478 113.435,71.946 113.047,74.592 113.026 C 76.788 113.009,77.445 112.659,76.091 112.229 C 75.528 112.050,75.358 111.482,75.268 109.469 C 75.116 106.086,76.509 104.319,79.123 104.579 C 82.307 104.896,82.454 104.730,82.185 101.122 C 81.910 97.422,82.212 96.805,84.207 96.991 C 85.872 97.146,86.371 96.606,86.642 94.360 C 86.940 91.888,86.944 91.886,90.852 92.137 C 93.235 92.290,94.400 92.226,94.400 91.940 C 94.400 91.706,94.628 91.602,94.906 91.709 C 95.275 91.850,95.372 91.481,95.264 90.347 C 95.023 87.830,95.408 87.053,97.365 86.102 C 98.811 85.400,99.206 84.976,99.408 83.915 C 99.993 80.848,102.072 79.454,104.948 80.203 C 107.364 80.833,112.800 81.024,112.800 80.480 C 112.800 80.304,112.575 79.918,112.300 79.621 C 111.900 79.190,111.900 79.139,112.300 79.365 C 112.639 79.556,112.800 79.342,112.800 78.700 C 112.800 77.491,113.407 76.759,115.400 75.563 C 117.613 74.235,137.485 74.069,140.105 75.356 C 142.110 76.342,143.651 78.207,143.436 79.390 C 143.166 80.878,147.170 81.340,150.416 80.194 C 152.114 79.595,153.600 79.704,153.600 80.427 C 153.600 80.632,153.848 80.800,154.151 80.800 C 154.844 80.800,155.558 82.537,155.675 84.508 C 155.779 86.267,156.913 87.272,158.239 86.781 C 159.075 86.472,161.050 86.283,162.651 86.359 C 163.442 86.397,164.163 87.508,164.486 89.190 C 164.669 90.142,165.473 90.799,166.471 90.813 C 168.162 90.838,169.163 92.095,169.287 94.354 C 169.349 95.479,169.546 96.400,169.724 96.400 C 169.902 96.400,169.964 96.535,169.862 96.700 C 169.760 96.865,170.109 97.000,170.638 97.000 C 171.167 97.000,171.606 96.820,171.613 96.600 C 171.620 96.380,172.058 96.692,172.587 97.292 C 173.378 98.191,173.488 98.595,173.208 99.574 C 172.668 101.455,172.773 104.496,173.370 104.267 C 173.646 104.161,174.121 104.228,174.426 104.416 C 174.766 104.626,175.096 104.573,175.283 104.279 C 175.487 103.958,175.590 103.947,175.594 104.245 C 175.597 104.491,176.087 104.637,176.690 104.570 C 178.496 104.372,179.470 105.770,180.405 109.900 C 180.802 111.658,181.024 112.000,181.765 112.000 C 185.161 112.000,186.728 118.496,184.026 121.372 C 182.990 122.475,183.718 122.607,185.521 121.642 C 188.495 120.051,186.350 109.200,183.062 109.200 C 182.223 109.200,181.563 108.524,181.435 107.533 C 181.416 107.387,181.265 107.132,181.100 106.967 C 180.935 106.802,180.800 106.080,180.800 105.362 C 180.800 104.644,180.539 103.796,180.219 103.476 C 179.900 103.157,179.707 102.826,179.792 102.742 C 180.117 102.416,178.522 100.747,177.780 100.638 C 177.351 100.575,177.017 100.361,177.038 100.162 C 177.059 99.963,176.812 99.170,176.491 98.400 C 176.169 97.630,175.944 97.000,175.990 97.000 C 176.036 97.000,175.855 96.520,175.588 95.934 C 175.162 94.999,174.295 94.432,173.014 94.254 C 172.802 94.224,172.082 93.228,171.414 92.039 C 170.746 90.851,169.930 89.753,169.600 89.599 C 167.265 88.514,166.586 87.949,166.302 86.855 C 165.699 84.526,162.899 83.127,160.692 84.050 C 159.982 84.347,159.258 84.593,159.085 84.595 C 158.912 84.598,158.607 84.865,158.407 85.188 C 157.859 86.075,157.469 85.414,156.802 82.470 C 155.908 78.523,154.450 77.928,148.339 79.018 C 147.042 79.249,146.849 79.173,146.612 78.339 C 146.080 76.466,145.092 74.968,144.057 74.464 C 141.846 73.389,128.274 72.952,117.200 73.601 M256.200 73.542 C 250.218 73.928,249.247 74.651,248.969 78.924 C 248.898 80.007,248.743 80.991,248.624 81.110 C 248.207 81.527,249.307 82.400,250.249 82.400 C 250.942 82.400,251.200 82.177,251.200 81.576 C 251.200 81.056,251.370 80.858,251.662 81.038 C 251.978 81.234,252.013 81.147,251.773 80.762 C 250.682 79.014,251.702 76.887,254.239 75.621 C 256.159 74.662,256.411 74.641,266.200 74.621 C 279.963 74.592,281.330 75.029,281.465 79.493 C 281.503 80.762,281.549 81.935,281.567 82.100 C 281.631 82.686,282.332 82.384,283.551 81.246 C 285.058 79.838,286.707 79.490,289.600 79.971 C 293.075 80.548,293.790 80.965,295.299 83.291 C 295.709 83.924,296.618 84.543,297.499 84.791 C 300.004 85.497,300.743 86.391,300.848 88.846 C 300.970 91.700,301.175 92.400,301.889 92.400 C 302.250 92.400,302.396 92.167,302.260 91.812 C 302.136 91.488,302.309 90.948,302.646 90.612 C 302.982 90.275,303.132 90.000,302.980 90.000 C 302.827 90.000,302.949 89.695,303.251 89.323 C 303.624 88.863,303.640 88.743,303.300 88.947 C 303.025 89.112,302.800 89.072,302.800 88.857 C 302.800 88.642,302.992 88.403,303.226 88.325 C 303.470 88.243,303.298 87.775,302.826 87.230 C 302.372 86.706,302.000 85.984,302.000 85.625 C 302.000 84.771,299.987 83.600,298.518 83.600 C 297.160 83.600,296.404 82.967,296.391 81.820 C 296.369 79.782,294.767 78.913,290.400 78.574 C 285.964 78.229,285.460 78.065,284.593 76.685 C 282.700 73.670,272.204 72.508,256.200 73.542 M240.614 78.743 C 239.544 79.104,238.473 79.740,238.234 80.156 C 237.034 82.248,235.189 83.600,233.534 83.600 C 231.225 83.600,229.297 84.876,228.970 86.621 C 228.747 87.808,228.497 88.051,227.110 88.424 C 225.180 88.944,223.600 90.419,223.600 91.702 C 223.600 92.917,222.896 93.597,221.620 93.613 C 220.132 93.631,219.201 94.511,218.633 96.434 C 218.188 97.941,217.941 98.188,216.434 98.633 C 214.511 99.201,213.631 100.132,213.613 101.620 C 213.596 102.928,212.912 103.600,211.596 103.600 C 210.072 103.600,209.238 104.384,208.652 106.371 C 208.186 107.948,207.955 108.184,206.434 108.633 C 204.511 109.201,203.631 110.132,203.613 111.620 C 203.596 112.928,202.912 113.600,201.595 113.600 C 200.184 113.600,198.894 114.890,198.568 116.630 C 198.420 117.419,198.097 118.124,197.849 118.199 C 197.602 118.273,196.900 118.443,196.290 118.577 C 194.785 118.907,193.600 120.175,193.600 121.456 C 193.600 122.745,192.598 123.570,191.013 123.587 C 189.433 123.604,188.000 125.268,188.000 127.087 L 188.000 128.449 186.200 128.179 C 184.619 127.942,184.397 128.000,184.372 128.655 C 184.350 129.245,184.287 129.275,184.072 128.800 C 183.604 127.769,182.663 127.838,182.943 128.883 C 183.079 129.387,183.192 130.006,183.195 130.257 C 183.198 130.544,184.086 130.726,185.584 130.748 C 188.226 130.785,189.200 130.041,189.200 127.986 C 189.200 126.850,190.843 125.058,192.282 124.624 C 193.269 124.326,195.200 122.214,195.200 121.433 C 195.200 121.155,196.068 120.455,197.130 119.877 C 198.191 119.299,199.262 118.383,199.509 117.840 C 200.188 116.349,201.663 114.800,202.402 114.800 C 203.209 114.800,204.800 113.171,204.800 112.346 C 204.800 111.642,206.244 110.308,207.978 109.411 C 208.650 109.064,209.200 108.549,209.200 108.267 C 209.200 107.286,211.147 105.126,212.743 104.336 C 213.886 103.771,214.421 103.215,214.598 102.409 C 214.839 101.312,217.283 99.200,218.311 99.200 C 218.569 99.200,219.073 98.632,219.432 97.938 C 220.313 96.234,221.258 95.271,222.834 94.470 C 223.560 94.102,224.496 93.177,224.916 92.416 C 225.853 90.714,226.563 90.147,228.524 89.535 C 229.362 89.273,230.239 88.686,230.474 88.230 C 231.745 85.756,234.562 85.170,236.739 86.928 C 237.779 87.768,238.797 87.657,238.849 86.697 C 238.979 84.343,239.094 82.556,239.144 82.122 C 239.175 81.859,239.961 81.116,240.892 80.472 L 242.584 79.300 244.392 80.150 C 245.386 80.617,246.438 81.225,246.729 81.500 C 247.395 82.130,247.548 82.129,247.455 81.497 C 247.251 80.106,245.999 79.164,243.180 78.281 C 242.839 78.174,241.685 78.382,240.614 78.743 M302.941 94.300 C 303.598 96.654,303.704 96.846,304.236 96.641 C 304.546 96.522,304.800 96.559,304.800 96.723 C 304.800 96.887,305.510 96.953,306.378 96.871 C 308.135 96.703,309.068 98.327,308.348 100.300 C 308.056 101.100,308.152 101.206,309.210 101.250 C 309.864 101.278,310.912 101.323,311.539 101.350 C 312.812 101.406,314.000 102.219,314.000 103.035 C 314.000 103.742,315.267 104.394,317.100 104.629 C 318.515 104.810,320.800 106.668,320.800 107.638 C 320.800 108.344,318.834 111.920,318.312 112.165 C 318.030 112.297,318.340 112.303,319.000 112.178 C 322.804 111.460,322.882 103.607,319.084 103.598 C 317.491 103.594,315.200 102.774,315.200 102.208 C 315.200 101.626,312.809 99.707,312.788 100.273 C 312.781 100.453,312.602 100.302,312.389 99.937 C 312.150 99.528,311.696 99.354,311.201 99.484 C 310.644 99.630,310.400 99.497,310.400 99.047 C 310.400 98.691,310.232 98.400,310.027 98.400 C 309.822 98.400,309.529 98.005,309.375 97.522 C 309.032 96.441,307.567 95.165,306.926 95.389 C 306.665 95.481,306.376 95.340,306.284 95.078 C 306.168 94.747,305.866 94.823,305.302 95.323 C 304.506 96.028,304.474 96.017,303.946 94.823 C 303.369 93.520,302.614 93.127,302.941 94.300 M318.000 114.547 C 318.000 115.419,318.121 115.599,318.500 115.290 C 319.795 114.234,324.473 115.615,324.967 117.200 C 325.966 120.402,325.578 124.751,324.157 126.284 C 322.881 127.661,323.225 127.897,324.952 126.830 C 326.591 125.817,327.040 123.697,326.708 118.535 C 326.443 114.405,325.922 113.922,321.413 113.622 L 318.000 113.396 318.000 114.547 M181.600 143.300 C 181.600 143.589,182.107 143.800,182.800 143.800 C 183.493 143.800,184.000 143.589,184.000 143.300 C 184.000 143.011,183.493 142.800,182.800 142.800 C 182.107 142.800,181.600 143.011,181.600 143.300 M138.093 182.800 C 138.093 183.570,138.175 183.885,138.276 183.500 C 138.376 183.115,138.376 182.485,138.276 182.100 C 138.175 181.715,138.093 182.030,138.093 182.800 M262.170 205.200 C 262.170 209.930,262.228 211.865,262.298 209.500 C 262.369 207.135,262.369 203.265,262.298 200.900 C 262.228 198.535,262.170 200.470,262.170 205.200 M261.350 205.000 C 261.351 207.420,261.416 208.358,261.496 207.085 C 261.576 205.812,261.575 203.832,261.494 202.685 C 261.414 201.538,261.349 202.580,261.350 205.000 M260.537 205.000 C 260.539 206.760,260.609 207.430,260.693 206.489 C 260.778 205.549,260.777 204.109,260.691 203.289 C 260.605 202.470,260.536 203.240,260.537 205.000 M138.093 227.600 C 138.093 228.370,138.175 228.685,138.276 228.300 C 138.376 227.915,138.376 227.285,138.276 226.900 C 138.175 226.515,138.093 226.830,138.093 227.600 M182.000 267.200 C 182.000 267.420,182.720 267.600,183.600 267.600 C 184.480 267.600,185.200 267.420,185.200 267.200 C 185.200 266.980,184.480 266.800,183.600 266.800 C 182.720 266.800,182.000 266.980,182.000 267.200 M188.700 267.089 C 189.415 267.178,190.585 267.178,191.300 267.089 C 192.015 267.001,191.430 266.928,190.000 266.928 C 188.570 266.928,187.985 267.001,188.700 267.089 M204.700 267.089 C 205.415 267.178,206.585 267.178,207.300 267.089 C 208.015 267.001,207.430 266.928,206.000 266.928 C 204.570 266.928,203.985 267.001,204.700 267.089 M210.800 267.200 C 210.800 267.420,211.430 267.600,212.200 267.600 C 212.970 267.600,213.600 267.420,213.600 267.200 C 213.600 266.980,212.970 266.800,212.200 266.800 C 211.430 266.800,210.800 266.980,210.800 267.200 M72.076 279.050 C 71.911 281.766,71.527 282.733,70.430 283.188 C 66.628 284.762,67.922 298.438,72.079 300.630 C 72.906 301.066,73.318 301.770,73.842 303.635 C 74.429 305.726,74.758 306.222,76.163 307.132 C 77.063 307.715,77.932 308.374,78.094 308.596 C 78.270 308.838,78.390 308.769,78.394 308.424 C 78.398 308.012,78.561 308.068,78.965 308.619 C 79.275 309.044,79.444 309.529,79.339 309.698 C 79.235 309.867,79.430 310.113,79.772 310.245 C 80.118 310.377,80.268 310.688,80.109 310.942 C 79.255 312.308,80.163 314.247,82.119 315.229 C 82.882 315.612,83.720 316.558,84.264 317.647 C 85.797 320.722,87.487 321.475,91.000 320.649 C 91.440 320.546,91.890 320.447,92.000 320.429 C 92.110 320.412,92.246 319.487,92.302 318.374 C 92.376 316.906,92.275 316.430,91.934 316.641 C 91.631 316.828,91.543 316.725,91.687 316.351 C 91.832 315.971,91.649 315.771,91.155 315.771 C 90.740 315.771,90.400 315.913,90.400 316.086 C 90.400 316.259,90.225 316.400,90.010 316.400 C 89.407 316.400,88.333 314.089,88.801 313.799 C 89.477 313.382,89.243 312.800,88.400 312.800 C 87.956 312.800,87.600 312.533,87.600 312.200 C 87.600 311.870,87.445 311.600,87.255 311.600 C 87.066 311.600,86.988 311.195,87.081 310.700 C 87.298 309.555,85.830 307.929,84.662 308.021 C 83.196 308.136,81.373 307.948,81.900 307.735 C 82.175 307.624,82.400 307.188,82.400 306.767 C 82.400 305.963,81.960 305.860,79.105 305.991 C 77.878 306.048,77.394 305.824,76.405 304.741 C 74.432 302.581,74.856 298.000,77.029 298.000 C 77.731 298.000,77.793 297.360,77.100 297.265 C 76.825 297.227,75.617 297.152,74.416 297.098 C 69.447 296.875,67.464 286.681,71.711 283.198 C 72.311 282.706,72.419 282.155,72.299 280.198 C 72.218 278.879,72.117 278.363,72.076 279.050 M322.800 280.204 C 322.800 282.099,322.965 282.580,323.981 283.644 C 325.285 285.007,325.825 287.288,325.454 289.855 C 325.331 290.705,325.223 291.689,325.215 292.042 C 325.174 293.789,323.308 294.874,320.587 294.734 C 318.181 294.609,317.318 294.858,318.500 295.335 C 318.900 295.496,318.900 295.543,318.500 295.568 C 318.225 295.586,318.014 296.005,318.032 296.500 C 318.049 296.995,318.152 297.182,318.260 296.916 C 318.383 296.612,318.889 296.518,319.616 296.663 C 325.381 297.816,327.396 294.956,326.624 286.717 C 326.349 283.779,326.327 283.734,324.972 283.245 C 323.619 282.755,323.600 282.715,323.600 280.374 C 323.600 279.058,323.422 278.000,323.200 278.000 C 322.980 278.000,322.800 278.992,322.800 280.204 M205.500 281.232 C 205.115 281.456,204.797 281.946,204.793 282.320 C 204.780 283.566,203.024 284.800,201.262 284.800 C 199.709 284.800,199.624 284.865,199.363 286.255 C 199.017 288.100,197.858 289.275,196.473 289.185 C 194.230 289.039,194.099 289.132,193.743 291.100 C 193.454 292.704,193.202 293.087,192.131 293.559 C 190.846 294.125,190.415 294.946,190.405 296.853 C 190.400 297.857,187.744 300.800,186.844 300.800 C 186.650 300.800,186.213 301.385,185.873 302.100 C 185.193 303.531,183.548 305.162,182.000 305.941 C 181.450 306.218,180.720 307.008,180.377 307.696 C 179.580 309.296,178.137 310.370,176.507 310.576 C 174.666 310.809,173.559 311.210,173.778 311.564 C 174.128 312.131,172.762 313.600,171.877 313.605 C 169.747 313.619,169.246 314.017,168.960 315.929 C 168.614 318.237,168.234 318.614,165.901 318.964 C 164.118 319.231,164.016 319.316,163.792 320.722 C 163.481 322.676,163.073 323.374,162.157 323.523 C 161.741 323.591,161.130 323.751,160.800 323.879 C 160.470 324.007,159.930 324.147,159.600 324.191 C 156.920 324.550,156.478 324.848,155.599 326.892 C 154.269 329.982,153.521 330.463,150.400 330.235 C 147.384 330.015,146.530 329.863,146.145 329.478 C 145.992 329.325,145.596 329.200,145.265 329.200 C 144.934 329.200,144.333 328.901,143.929 328.536 C 143.525 328.170,143.061 328.015,142.898 328.191 C 142.734 328.366,142.825 328.590,143.100 328.688 C 143.375 328.786,143.600 329.122,143.600 329.433 C 143.600 329.745,143.861 330.000,144.180 330.000 C 144.499 330.000,144.904 330.247,145.080 330.550 C 145.397 331.094,146.610 331.375,150.721 331.855 C 154.001 332.238,155.749 331.288,156.610 328.653 C 157.447 326.090,157.679 325.946,160.467 326.249 C 163.758 326.607,166.400 324.992,166.400 322.622 C 166.400 322.339,167.248 321.672,168.284 321.138 C 169.698 320.411,170.411 319.698,171.138 318.284 C 171.672 317.248,172.318 316.400,172.574 316.400 C 173.770 316.400,175.234 315.249,176.007 313.700 C 176.616 312.481,177.103 312.000,177.728 311.999 C 179.704 311.995,181.216 310.478,182.113 307.596 C 182.216 307.264,183.134 306.770,184.152 306.497 C 185.887 306.033,186.033 305.888,186.492 304.173 C 186.927 302.544,187.182 302.258,188.827 301.550 C 190.705 300.742,192.000 298.962,192.000 297.186 C 192.000 296.754,192.234 296.400,192.520 296.400 C 194.118 296.400,196.400 294.175,196.400 292.617 C 196.400 292.332,197.279 291.720,198.353 291.258 C 199.954 290.569,200.477 290.074,201.253 288.509 C 201.950 287.103,202.464 286.565,203.200 286.466 C 204.544 286.286,206.400 284.469,206.400 283.333 C 206.400 282.306,207.022 282.070,210.167 281.904 C 211.303 281.844,212.204 281.589,212.300 281.300 C 212.509 280.673,206.563 280.613,205.500 281.232 M188.602 288.798 C 188.203 289.239,188.007 289.600,188.167 289.600 C 188.588 289.600,189.728 288.395,189.512 288.179 C 189.411 288.078,189.002 288.356,188.602 288.798 M210.296 288.434 C 207.558 290.029,207.582 299.672,210.328 301.294 C 211.940 302.246,217.298 302.376,217.431 301.466 C 217.514 300.903,217.127 300.800,214.919 300.800 C 209.500 300.800,207.355 293.269,211.477 288.715 C 212.227 287.886,211.524 287.719,210.296 288.434 M319.746 300.373 L 320.991 302.746 319.995 303.812 C 319.448 304.399,318.145 305.314,317.100 305.846 C 315.873 306.471,315.200 307.074,315.200 307.549 C 315.200 308.612,312.966 310.302,311.156 310.607 C 310.298 310.752,309.600 311.099,309.600 311.381 C 309.600 312.916,307.935 314.056,305.927 313.896 C 303.940 313.737,302.308 315.432,302.964 316.972 C 303.064 317.207,303.270 316.991,303.422 316.492 C 303.640 315.774,303.814 315.679,304.249 316.041 C 304.666 316.387,304.800 316.379,304.800 316.006 C 304.800 315.726,305.067 315.617,305.421 315.753 C 305.842 315.914,305.946 315.832,305.744 315.495 C 305.512 315.109,305.575 315.104,306.035 315.476 C 306.871 316.152,309.624 314.856,310.387 313.427 C 310.956 312.361,313.407 310.800,314.513 310.800 C 314.813 310.800,315.460 309.996,315.951 309.013 C 316.796 307.321,318.284 306.412,320.226 306.402 C 321.817 306.394,322.398 301.856,321.100 299.582 C 319.439 296.673,318.189 297.403,319.746 300.373 M215.736 303.328 C 212.292 305.043,213.584 311.600,217.365 311.600 C 217.655 311.600,218.250 312.545,218.687 313.700 C 219.374 315.517,219.688 315.869,221.017 316.315 C 223.004 316.980,223.600 317.499,223.600 318.560 C 223.600 320.000,224.737 321.157,226.718 321.733 C 228.207 322.166,228.684 322.523,229.000 323.439 C 229.982 326.283,236.800 327.939,236.800 325.334 C 236.800 325.014,236.994 324.873,237.231 325.019 C 237.509 325.191,237.615 324.882,237.531 324.143 C 237.441 323.361,237.211 323.049,236.800 323.155 C 232.713 324.213,231.750 324.056,230.976 322.205 C 230.529 321.134,230.154 320.863,228.828 320.651 C 227.187 320.388,224.800 318.522,224.800 317.502 C 224.800 316.857,223.357 315.556,221.965 314.947 C 221.325 314.666,220.562 313.714,219.965 312.450 C 219.434 311.327,218.714 310.313,218.365 310.197 C 216.907 309.715,215.250 307.811,215.657 307.085 C 215.873 306.699,216.122 306.005,216.211 305.542 C 216.300 305.079,216.653 304.273,216.996 303.750 C 217.684 302.699,217.275 302.562,215.736 303.328 M168.602 308.798 C 168.203 309.239,168.007 309.600,168.167 309.600 C 168.588 309.600,169.728 308.395,169.512 308.179 C 169.411 308.078,169.002 308.356,168.602 308.798 M91.397 313.995 C 91.533 314.214,91.388 314.293,91.072 314.172 C 90.759 314.052,90.403 314.215,90.281 314.533 C 90.122 314.947,90.334 315.096,91.029 315.056 C 91.983 315.001,92.509 313.600,91.576 313.600 C 91.343 313.600,91.263 313.778,91.397 313.995 M88.665 316.574 C 88.544 316.890,88.660 317.232,88.922 317.333 C 89.185 317.435,89.016 317.500,88.548 317.478 C 87.830 317.443,87.766 317.323,88.144 316.718 C 88.682 315.856,88.971 315.776,88.665 316.574 M93.009 320.557 C 93.059 321.901,93.233 323.405,93.396 323.900 C 93.666 324.718,93.886 324.869,94.655 324.766 C 94.796 324.747,95.059 324.972,95.241 325.266 C 95.422 325.560,95.712 325.824,95.885 325.854 C 97.493 326.129,99.200 328.372,99.200 330.210 C 99.200 332.463,108.642 332.277,111.163 329.975 C 112.731 328.542,112.809 327.735,111.300 328.546 C 105.631 331.593,101.753 331.020,99.609 326.818 C 99.107 325.833,98.396 325.138,97.614 324.865 C 96.946 324.632,96.400 324.252,96.400 324.021 C 96.400 323.789,96.130 323.600,95.800 323.600 C 95.328 323.600,95.200 323.044,95.200 321.000 C 95.200 319.570,95.065 318.377,94.900 318.349 C 92.897 318.008,92.914 317.988,93.009 320.557 M300.800 320.771 C 300.800 323.910,300.381 324.470,296.994 325.863 C 296.009 326.269,295.202 326.709,295.201 326.842 C 295.193 328.155,290.308 330.800,287.890 330.800 C 286.828 330.800,284.808 329.949,284.803 329.500 C 284.801 329.335,284.549 329.200,284.243 329.200 C 283.936 329.200,283.572 328.904,283.433 328.543 C 283.295 328.181,283.076 327.991,282.947 328.120 C 282.818 328.249,282.955 328.902,283.252 329.572 C 284.927 333.356,296.400 332.487,296.400 328.576 C 296.400 327.620,298.403 326.400,299.973 326.400 C 300.442 326.400,300.941 326.085,301.083 325.700 C 301.225 325.315,301.476 324.908,301.640 324.795 C 302.396 324.277,302.301 318.000,301.537 318.000 C 300.892 318.000,300.800 318.346,300.800 320.771 M238.055 326.100 C 238.006 329.555,238.204 330.088,239.989 331.318 C 242.356 332.950,247.543 331.151,247.587 328.684 C 247.599 328.023,247.536 328.029,246.746 328.764 C 242.989 332.265,239.004 330.470,239.266 325.394 C 239.379 323.211,239.297 322.798,238.751 322.799 C 238.209 322.800,238.095 323.342,238.055 326.100 " stroke="none" fill="#04f4fc" fill-rule="evenodd"></path><path id="path4" d="" stroke="none" fill="#08fcfc" fill-rule="evenodd"></path></g></svg>